<svg xmlns="http://www.w3.org/2000/svg" x="0px" y="0px"
width="50" height="50"
viewBox="0 0 172 172"
style=" fill:#000000;"><g fill="none" fill-rule="nonzero" stroke="none" stroke-width="1" stroke-linecap="butt" stroke-linejoin="miter" stroke-miterlimit="10" stroke-dasharray="" stroke-dashoffset="0" font-family="none" font-weight="none" font-size="none" text-anchor="none" style="mix-blend-mode: normal"><path d="M0,172v-172h172v172z" fill="none"></path><g fill="#3498db"><path d="M86,6.88c-43.62608,0 -79.12,35.49048 -79.12,79.12c0,43.62952 35.49392,79.12 79.12,79.12c43.62608,0 79.12,-35.49048 79.12,-79.12c0,-11.782 -2.60897,-22.96409 -7.24953,-33.02265c-3.182,5.19784 -8.13259,9.19673 -14.02875,11.11281c2.59376,6.82496 4.07828,14.18705 4.07828,21.90985c0,34.142 -27.778,61.92 -61.92,61.92c-34.142,0 -61.92,-27.778 -61.92,-61.92c0,-34.142 27.778,-61.92 61.92,-61.92c9.288,0 18.0694,2.11076 25.9814,5.79156c2.322,-5.7104 6.63168,-10.39498 12.06688,-13.21578c-11.29696,-6.2264 -24.2642,-9.77578 -38.04828,-9.77578zM135.88,20.64c-10.44923,0 -18.92,8.47077 -18.92,18.92c0,10.44923 8.47077,18.92 18.92,18.92c10.44923,0 18.92,-8.47077 18.92,-18.92c0,-10.44923 -8.47077,-18.92 -18.92,-18.92zM86,51.6c-18.9986,0 -34.4,15.4014 -34.4,34.4c0,18.9986 15.4014,34.4 34.4,34.4c18.9986,0 34.4,-15.4014 34.4,-34.4c0,-18.9986 -15.4014,-34.4 -34.4,-34.4z"></path></g></g></svg>